Coordinates
version=1
nRows=17
nColumns=24
inDegrees=yes

Units are S.I. units (second, meters, Newtons, ...)
Angles are in degrees.

endheader
time	pelvis_tilt	pelvis_list	pelvis_rotation	pelvis_tx	pelvis_ty	pelvis_tz	hip_flexion_r	hip_adduction_r	hip_rotation_r	knee_angle_r	ankle_angle_r	subtalar_angle_r	mtp_angle_r	hip_flexion_l	hip_adduction_l	hip_rotation_l	knee_angle_l	ankle_angle_l	subtalar_angle_l	mtp_angle_l	lumbar_extension	lumbar_bending	lumbar_rotation
      0.01000000	     -6.04374929	      0.50891011	      2.38678905	     -0.09337458	      0.90208306	     -0.03983539	     53.76832487	     -6.75104892	     -8.51680566	    -38.19311511	     24.10780725	     -0.00000010	      0.00000000	    -11.28028005	      0.90671444	      0.99573275	      1.86848678	      9.46590514	      0.00000029	      0.00000000	    -15.77298618	     -2.69226898	     -3.35131020
      0.02000000	     -5.85811211	      0.42066408	      2.98539544	     -0.09162571	      0.89839300	     -0.03939657	     53.89178378	     -6.59516685	     -7.86558177	    -39.46413392	     21.23892592	     -0.00000019	      0.00000000	    -12.08611696	      0.53469101	      0.89276864	      1.26091938	      9.89423127	      0.00000034	      0.00000000	    -15.72810152	     -2.30162973	     -3.78616500
      0.03000000	     -5.72546550	      0.40139973	      3.62376402	     -0.08961081	      0.89516296	     -0.03888081	     53.86086885	     -6.45685708	     -7.12653913	    -40.99056883	     18.74760088	     -0.00000005	      0.00000000	    -12.58151869	      0.21986583	      0.95785669	      0.13356509	     10.75390341	      0.00000038	      0.00000000	    -15.66422857	     -2.01442302	     -4.14876674
      0.04000000	     -5.57238010	      0.35121643	      4.30300354	     -0.08750330	      0.89218530	     -0.03854686	     53.70265563	     -6.38440649	     -6.55481647	    -42.68264172	     17.32573747	     -0.00000010	      0.00000000	    -12.84869182	     -0.11979325	      1.30913100	     -1.41875933	     11.35475073	      0.00000035	      0.00000000	    -15.58258830	     -1.62702783	     -4.58400957
      0.05000000	     -5.47356165	      0.36573643	      4.93687170	     -0.08563505	      0.88975576	     -0.03802247	     53.66672754	     -6.45614879	     -6.13269611	    -44.55428250	     16.73907852	     -0.00000001	      0.00000000	    -12.56787225	     -0.38922801	      2.05449126	     -4.21794619	     13.22446700	      0.00000040	      0.00000000	    -15.53002109	     -1.34131112	     -4.92385318
      0.06000000	     -5.35399280	      0.35555691	      5.58527515	     -0.08377675	      0.88810873	     -0.03752549	     53.78292933	     -6.59103584	     -5.78302509	    -46.84315357	     17.93764666	      0.00000001	      0.00000000	    -12.17480162	     -0.64067261	      2.69869393	     -6.91725093	     14.69229533	      0.00000041	      0.00000000	    -15.52854386	     -1.00026919	     -5.24511206
      0.07000000	     -5.21869300	      0.27194588	      6.19097479	     -0.08196918	      0.88728282	     -0.03692219	     53.78457498	     -6.61192560	     -5.48718407	    -48.98835908	     19.81246575	      0.00000003	      0.00000000	    -11.61428601	     -0.95301334	      3.29082066	     -9.79734669	     16.13503285	      0.00000044	      0.00000000	    -15.57950746	     -0.57427746	     -5.52001253
      0.08000000	     -5.10050073	      0.10567023	      6.70968015	     -0.08013005	      0.88733466	     -0.03610996	     53.43639983	     -6.48849578	     -5.37174938	    -50.49461151	     21.26220155	      0.00000002	      0.00000000	    -10.62616041	     -1.26807370	      3.71469142	    -13.73927139	     18.57669814	      0.00000039	      0.00000000	    -15.65128042	     -0.08676504	     -5.67817060
      0.09000000	     -5.06548875	     -0.04103646	      7.10462709	     -0.07859857	      0.88773841	     -0.03507179	     52.90106391	     -6.35026305	     -5.41249603	    -51.43512521	     22.05918474	      0.00000001	      0.00000000	     -9.27536835	     -1.52332967	      3.86749725	    -18.00271958	     20.85618453	      0.00000048	      0.00000000	    -15.64959122	      0.34306649	     -5.83930436
      0.10000000	     -5.05980769	     -0.17062746	      7.34694954	     -0.07713591	      0.88858861	     -0.03382331	     52.20094653	     -6.18928526	     -5.57100210	    -52.01261780	     22.55827390	      0.00000002	      0.00000000	     -7.72986989	     -1.74611539	      3.82269863	    -22.38452253	     22.86643435	      0.00000042	      0.00000000	    -15.60704793	      0.72104414	     -5.91585771
      0.11000000	     -5.10360535	     -0.23774288	      7.46204733	     -0.07585202	      0.88989648	     -0.03233362	     51.38468508	     -6.06959969	     -5.82450877	    -52.25829833	     22.79109658	      0.00000010	      0.00000000	     -5.97681079	     -1.90443071	      3.59884736	    -26.91412119	     24.50362543	      0.00000039	      0.00000000	    -15.55941848	      0.97865540	     -5.85984433
      0.12000000	     -5.13751765	     -0.22373251	      7.45205174	     -0.07465733	      0.89168558	     -0.03081402	     50.45358382	     -6.03298247	     -6.13752753	    -52.34895076	     23.00582502	      0.00000012	      0.00000000	     -4.28041545	     -1.96665346	      3.36922285	    -31.05109281	     24.71883262	      0.00000040	      0.00000000	    -15.53036030	      1.12016744	     -5.68533372
      0.13000000	     -5.20837246	     -0.11815937	      7.32439543	     -0.07391458	      0.89362870	     -0.02917529	     49.53953839	     -6.05510037	     -6.41563963	    -52.37264232	     23.35578250	      0.00000018	      0.00000000	     -2.44994985	     -1.87362371	      3.11795815	    -35.19110782	     24.09959442	      0.00000037	      0.00000000	    -15.49169746	      1.11528312	     -5.43273936
      0.14000000	     -5.24408929	     -0.00739518	      7.10340251	     -0.07332092	      0.89594906	     -0.02736861	     48.47876256	     -6.04046832	     -6.72271033	    -52.22642866	     23.63914811	      0.00000023	      0.00000000	     -0.63639575	     -1.79017845	      2.61277930	    -38.78555820	     20.67961161	      0.00000027	      0.00000000	    -15.49474015	      1.04713184	     -5.07405189
      0.15000000	     -5.33944286	      0.15582270	      6.75045605	     -0.07308757	      0.89818173	     -0.02535752	     47.52417992	     -5.96242124	     -6.85754586	    -52.11849922	     24.22710025	      0.00000032	      0.00000000	      1.28938199	     -1.52259486	      2.33838758	    -42.75202777	     18.14539197	      0.00000033	      0.00000000	    -15.44221383	      0.84236310	     -4.57334702
      0.16000000	     -5.40559967	      0.25548195	      6.34125209	     -0.07300190	      0.90062857	     -0.02319745	     46.43568372	     -5.79669508	     -7.03514183	    -51.79063247	     24.62131471	      0.00000033	      0.00000000	      3.25728968	     -1.36762408	      1.83872042	    -46.19320979	     12.24466103	      0.00000027	      0.00000000	    -15.40029338	      0.65972930	     -3.99384551
      0.17000000	     -5.49652570	      0.30287269	      5.83901102	     -0.07328260	      0.90307669	     -0.02080007	     45.30556446	     -5.43056669	     -7.06348256	    -51.24565197	     24.79217463	      0.00000044	      0.00000000	      5.33850586	     -1.26854702	      1.30349551	    -49.74169039	      5.48519735	      0.00000023	      0.00000000	    -15.32125575	      0.47929247	     -3.32917546
